<mxfile host="app.diagrams.net" agent="Mozilla/5.0 (Windows NT 10.0; Win64; x64) AppleWebKit/537.36 (KHTML, like Gecko) Chrome/127.0.0.0 Safari/537.36" version="24.7.7">
  <diagram name="Página-1" id="JDldfiF3qxi8XNbHD2d9">
    <mxGraphModel dx="1050" dy="522" grid="1" gridSize="10" guides="1" tooltips="1" connect="1" arrows="1" fold="1" page="1" pageScale="1" pageWidth="827" pageHeight="1169" math="0" shadow="0">
      <root>
        <mxCell id="0" />
        <mxCell id="1" parent="0" />
        <mxCell id="YUv47NW1e7_GvXN8vhhe-3" value="" style="edgeStyle=orthogonalEdgeStyle;rounded=0;orthogonalLoop=1;jettySize=auto;html=1;" edge="1" parent="1" source="YUv47NW1e7_GvXN8vhhe-1" target="YUv47NW1e7_GvXN8vhhe-2">
          <mxGeometry relative="1" as="geometry" />
        </mxCell>
        <mxCell id="YUv47NW1e7_GvXN8vhhe-1" value="Inicio" style="ellipse;whiteSpace=wrap;html=1;aspect=fixed;" vertex="1" parent="1">
          <mxGeometry x="200" y="10" width="80" height="80" as="geometry" />
        </mxCell>
        <mxCell id="YUv47NW1e7_GvXN8vhhe-5" value="" style="edgeStyle=orthogonalEdgeStyle;rounded=0;orthogonalLoop=1;jettySize=auto;html=1;" edge="1" parent="1" source="YUv47NW1e7_GvXN8vhhe-2">
          <mxGeometry relative="1" as="geometry">
            <mxPoint x="240" y="270" as="targetPoint" />
          </mxGeometry>
        </mxCell>
        <mxCell id="YUv47NW1e7_GvXN8vhhe-2" value="&lt;div&gt;Definir tipo cambio EUR a MXN = 23.70&lt;/div&gt;&lt;div&gt;&amp;nbsp; &amp;nbsp; Definir tipo cambio USD a MXN&amp;nbsp;= 20.75&lt;/div&gt;" style="rounded=0;whiteSpace=wrap;html=1;fillColor=#fff2cc;strokeColor=#d6b656;" vertex="1" parent="1">
          <mxGeometry x="160" y="150" width="160" height="90" as="geometry" />
        </mxCell>
        <mxCell id="YUv47NW1e7_GvXN8vhhe-9" value="" style="edgeStyle=orthogonalEdgeStyle;rounded=0;orthogonalLoop=1;jettySize=auto;html=1;" edge="1" parent="1" source="YUv47NW1e7_GvXN8vhhe-6" target="YUv47NW1e7_GvXN8vhhe-8">
          <mxGeometry relative="1" as="geometry" />
        </mxCell>
        <mxCell id="YUv47NW1e7_GvXN8vhhe-6" value="Mostrar mensaje: &quot;Ingrese la moneda origen para la conversión (EUR/USD): &quot;" style="shape=parallelogram;perimeter=parallelogramPerimeter;whiteSpace=wrap;html=1;fixedSize=1;fillColor=#f8cecc;strokeColor=#b85450;" vertex="1" parent="1">
          <mxGeometry x="145" y="270" width="190" height="130" as="geometry" />
        </mxCell>
        <mxCell id="YUv47NW1e7_GvXN8vhhe-11" value="" style="edgeStyle=orthogonalEdgeStyle;rounded=0;orthogonalLoop=1;jettySize=auto;html=1;" edge="1" parent="1" source="YUv47NW1e7_GvXN8vhhe-8" target="YUv47NW1e7_GvXN8vhhe-10">
          <mxGeometry relative="1" as="geometry" />
        </mxCell>
        <mxCell id="YUv47NW1e7_GvXN8vhhe-8" value="Mostrar mensaje: &quot;Ingrese el monto a convertir: &quot;" style="shape=parallelogram;perimeter=parallelogramPerimeter;whiteSpace=wrap;html=1;fixedSize=1;fillColor=#f8cecc;strokeColor=#b85450;" vertex="1" parent="1">
          <mxGeometry x="140" y="430" width="190" height="130" as="geometry" />
        </mxCell>
        <mxCell id="YUv47NW1e7_GvXN8vhhe-13" value="" style="edgeStyle=orthogonalEdgeStyle;rounded=0;orthogonalLoop=1;jettySize=auto;html=1;" edge="1" parent="1" source="YUv47NW1e7_GvXN8vhhe-10" target="YUv47NW1e7_GvXN8vhhe-12">
          <mxGeometry relative="1" as="geometry" />
        </mxCell>
        <mxCell id="YUv47NW1e7_GvXN8vhhe-20" value="" style="edgeStyle=orthogonalEdgeStyle;rounded=0;orthogonalLoop=1;jettySize=auto;html=1;" edge="1" parent="1" source="YUv47NW1e7_GvXN8vhhe-10" target="YUv47NW1e7_GvXN8vhhe-19">
          <mxGeometry relative="1" as="geometry" />
        </mxCell>
        <mxCell id="YUv47NW1e7_GvXN8vhhe-10" value="tipo_conversion == &quot;EUR&quot;" style="rhombus;whiteSpace=wrap;html=1;fillColor=#dae8fc;strokeColor=#6c8ebf;" vertex="1" parent="1">
          <mxGeometry x="152.5" y="610" width="165" height="180" as="geometry" />
        </mxCell>
        <mxCell id="YUv47NW1e7_GvXN8vhhe-17" value="" style="edgeStyle=orthogonalEdgeStyle;rounded=0;orthogonalLoop=1;jettySize=auto;html=1;" edge="1" parent="1" source="YUv47NW1e7_GvXN8vhhe-12" target="YUv47NW1e7_GvXN8vhhe-16">
          <mxGeometry relative="1" as="geometry" />
        </mxCell>
        <mxCell id="YUv47NW1e7_GvXN8vhhe-12" value="Calcular resultado = monto_a_convertir * tipo cambio EUR a MXN" style="rounded=0;whiteSpace=wrap;html=1;fillColor=#fff2cc;strokeColor=#d6b656;" vertex="1" parent="1">
          <mxGeometry x="360" y="650" width="170" height="100" as="geometry" />
        </mxCell>
        <mxCell id="YUv47NW1e7_GvXN8vhhe-35" style="edgeStyle=orthogonalEdgeStyle;rounded=0;orthogonalLoop=1;jettySize=auto;html=1;" edge="1" parent="1" source="YUv47NW1e7_GvXN8vhhe-16" target="YUv47NW1e7_GvXN8vhhe-29">
          <mxGeometry relative="1" as="geometry">
            <Array as="points">
              <mxPoint x="800" y="700" />
              <mxPoint x="800" y="1240" />
            </Array>
          </mxGeometry>
        </mxCell>
        <mxCell id="YUv47NW1e7_GvXN8vhhe-16" value="Mostrar &quot;El resultado de la conversión de EUR a MXN es: &quot;, resultado" style="shape=parallelogram;perimeter=parallelogramPerimeter;whiteSpace=wrap;html=1;fixedSize=1;fillColor=#f8cecc;strokeColor=#b85450;" vertex="1" parent="1">
          <mxGeometry x="590" y="645" width="190" height="110" as="geometry" />
        </mxCell>
        <mxCell id="YUv47NW1e7_GvXN8vhhe-18" value="SI" style="text;html=1;align=center;verticalAlign=middle;whiteSpace=wrap;rounded=0;" vertex="1" parent="1">
          <mxGeometry x="310" y="670" width="60" height="30" as="geometry" />
        </mxCell>
        <mxCell id="YUv47NW1e7_GvXN8vhhe-25" value="" style="edgeStyle=orthogonalEdgeStyle;rounded=0;orthogonalLoop=1;jettySize=auto;html=1;" edge="1" parent="1" source="YUv47NW1e7_GvXN8vhhe-19" target="YUv47NW1e7_GvXN8vhhe-23">
          <mxGeometry relative="1" as="geometry" />
        </mxCell>
        <mxCell id="YUv47NW1e7_GvXN8vhhe-28" value="" style="edgeStyle=orthogonalEdgeStyle;rounded=0;orthogonalLoop=1;jettySize=auto;html=1;" edge="1" parent="1" source="YUv47NW1e7_GvXN8vhhe-19" target="YUv47NW1e7_GvXN8vhhe-27">
          <mxGeometry relative="1" as="geometry" />
        </mxCell>
        <mxCell id="YUv47NW1e7_GvXN8vhhe-19" value="tipo_conversion == &quot;USD&quot;" style="rhombus;whiteSpace=wrap;html=1;fillColor=#dae8fc;strokeColor=#6c8ebf;" vertex="1" parent="1">
          <mxGeometry x="152.5" y="830" width="165" height="180" as="geometry" />
        </mxCell>
        <mxCell id="YUv47NW1e7_GvXN8vhhe-21" value="No" style="text;html=1;align=center;verticalAlign=middle;whiteSpace=wrap;rounded=0;" vertex="1" parent="1">
          <mxGeometry x="220" y="790" width="60" height="30" as="geometry" />
        </mxCell>
        <mxCell id="YUv47NW1e7_GvXN8vhhe-22" value="" style="edgeStyle=orthogonalEdgeStyle;rounded=0;orthogonalLoop=1;jettySize=auto;html=1;" edge="1" parent="1" source="YUv47NW1e7_GvXN8vhhe-23" target="YUv47NW1e7_GvXN8vhhe-24">
          <mxGeometry relative="1" as="geometry" />
        </mxCell>
        <mxCell id="YUv47NW1e7_GvXN8vhhe-23" value="Calcular resultado = monto_a_convertir * tipo cambio USD a MXN" style="rounded=0;whiteSpace=wrap;html=1;fillColor=#fff2cc;strokeColor=#d6b656;" vertex="1" parent="1">
          <mxGeometry x="360" y="870" width="170" height="100" as="geometry" />
        </mxCell>
        <mxCell id="YUv47NW1e7_GvXN8vhhe-34" style="edgeStyle=orthogonalEdgeStyle;rounded=0;orthogonalLoop=1;jettySize=auto;html=1;entryX=1;entryY=0.5;entryDx=0;entryDy=0;" edge="1" parent="1" source="YUv47NW1e7_GvXN8vhhe-24" target="YUv47NW1e7_GvXN8vhhe-29">
          <mxGeometry relative="1" as="geometry">
            <Array as="points">
              <mxPoint x="685" y="1120" />
              <mxPoint x="580" y="1120" />
              <mxPoint x="580" y="1240" />
            </Array>
          </mxGeometry>
        </mxCell>
        <mxCell id="YUv47NW1e7_GvXN8vhhe-24" value="Mostrar &quot;El resultado de la conversión de USD a MXN es: &quot;, resultado" style="shape=parallelogram;perimeter=parallelogramPerimeter;whiteSpace=wrap;html=1;fixedSize=1;fillColor=#f8cecc;strokeColor=#b85450;" vertex="1" parent="1">
          <mxGeometry x="590" y="865" width="190" height="110" as="geometry" />
        </mxCell>
        <mxCell id="YUv47NW1e7_GvXN8vhhe-26" value="SI" style="text;html=1;align=center;verticalAlign=middle;whiteSpace=wrap;rounded=0;" vertex="1" parent="1">
          <mxGeometry x="300" y="890" width="60" height="30" as="geometry" />
        </mxCell>
        <mxCell id="YUv47NW1e7_GvXN8vhhe-30" value="" style="edgeStyle=orthogonalEdgeStyle;rounded=0;orthogonalLoop=1;jettySize=auto;html=1;" edge="1" parent="1" source="YUv47NW1e7_GvXN8vhhe-27" target="YUv47NW1e7_GvXN8vhhe-29">
          <mxGeometry relative="1" as="geometry" />
        </mxCell>
        <mxCell id="YUv47NW1e7_GvXN8vhhe-27" value="&lt;div&gt;&amp;nbsp; &amp;nbsp; &amp;nbsp; &amp;nbsp; Mostrar: &quot;No está disponible este tipo de conversión actualmente&quot;&lt;/div&gt;&lt;div&gt;&lt;br&gt;&lt;/div&gt;" style="shape=parallelogram;perimeter=parallelogramPerimeter;whiteSpace=wrap;html=1;fixedSize=1;fillColor=#f8cecc;strokeColor=#b85450;" vertex="1" parent="1">
          <mxGeometry x="140" y="1040" width="190" height="110" as="geometry" />
        </mxCell>
        <mxCell id="YUv47NW1e7_GvXN8vhhe-29" value="Fin" style="ellipse;whiteSpace=wrap;html=1;aspect=fixed;" vertex="1" parent="1">
          <mxGeometry x="195" y="1200" width="80" height="80" as="geometry" />
        </mxCell>
        <mxCell id="YUv47NW1e7_GvXN8vhhe-31" value="NO" style="text;html=1;align=center;verticalAlign=middle;whiteSpace=wrap;rounded=0;" vertex="1" parent="1">
          <mxGeometry x="220" y="1010" width="60" height="30" as="geometry" />
        </mxCell>
      </root>
    </mxGraphModel>
  </diagram>
</mxfile>
